<?xml version="1.0" encoding="utf-8"?>
<!-- Generator: Adobe Illustrator 19.2.1, SVG Export Plug-In . SVG Version: 6.00 Build 0)  -->
<svg version="1.1" id="Layer_1" xmlns="http://www.w3.org/2000/svg" xmlns:xlink="http://www.w3.org/1999/xlink" x="0px" y="0px"
	 viewBox="0 0 879 342" style="enable-background:new 0 0 879 342;" xml:space="preserve">
<style type="text/css">
	.st0{fill:none;stroke:#336600;stroke-width:15;stroke-linecap:round;stroke-miterlimit:10;}
	.st1{fill:#FF9900;stroke:#000000;stroke-width:4;stroke-miterlimit:10;}
</style>
<g>
	<g>
		<path class="st0" d="M826.5,73.7c-2,18.3-18.5,31.5-36.9,29.5c-22.9-2.5-39.4-23.2-36.9-46.1c3.2-28.6,29-49.3,57.6-46.1
			c35.8,4,61.6,36.2,57.6,72c-5,44.7-45.9,62.8-90,72c-36.7,7.7-273,17-273,17s237.7,13.3,282,22c39.3,7.7,76,23.2,81,63
			c4,31.8-18.6,60.8-50.4,64.8c-25.4,3.2-48.7-14.9-51.8-40.3c-2.5-20.4,11.9-38.9,32.3-41.5c16.3-2,31.1,9.5,33.2,25.8"/>
		<path class="st0" d="M694.8,52.4c6.1,14.3-0.5,30.8-14.7,36.9c-17.8,7.6-38.4-0.6-46.1-18.4c-9.5-22.3,0.8-48.1,23-57.6
			c27.8-11.9,60.1,1,72,28.8c14.9,34.8-1.8,73.7-36,90c-35,16.7-188,40-188,40s144.3,26,182,42c33.3,14.1,54.9,46.2,45,81
			c-8,27.8-37,44-64.8,36c-22.3-6.4-35.2-29.6-28.8-51.8c5.1-17.8,23.7-28.1,41.5-23c14.3,4.1,22.5,18.9,18.4,33.2"/>
	</g>
	<path class="st1" d="M486,112.4V162h-18v-51.7c-14-1.3-29.1-1.9-45-1.9V153h-18v-44.5c-17.4,0.4-35.5,1.4-54,2.9V162h-18v-48.9
		c-14.9,1.4-29.9,3.1-45,5V171h-18v-50.6c-18.2,2.5-36.3,5.2-54,8.1V162h-18v-30.4c-18.7,3.2-36.9,6.6-54,9.9V171h-18v-26
		C57.5,158.7,9,171,9,171s559,141,558,0C566.8,137.3,534.7,119.7,486,112.4z"/>
</g>
</svg>
