<svg id="Layer_1" data-name="Layer 1" xmlns="http://www.w3.org/2000/svg" viewBox="0 0 468.81 468.81"><defs><style>.cls-1,.cls-2,.cls-3,.cls-5{fill:none;stroke:#4d4d4d;stroke-miterlimit:10;}.cls-1,.cls-2,.cls-3{stroke-linecap:round;}.cls-1,.cls-5{stroke-width:40px;}.cls-2{stroke-width:12px;}.cls-3{stroke-width:11.63px;}.cls-4{fill:#4d4d4d;}</style></defs><title>cart</title><circle class="cls-1" cx="234.41" cy="234.41" r="214.41"/><polyline class="cls-2" points="70.41 147.41 126.28 147.41 131.76 166.94 161.74 300.43 380.9 283.39 398.34 174.6 131.72 167.27"/><path class="cls-3" d="M350.09,338s-189.44-.16-198.52-0.09c-12.21.09-7-12-7-12l17.16-27.28"/><circle class="cls-3" cx="183.8" cy="354.62" r="16.66"/><circle class="cls-4" cx="183.8" cy="354.62" r="5.41"/><circle class="cls-4" cx="309.76" cy="354.62" r="5.41"/><circle class="cls-3" cx="309.76" cy="354.62" r="16.66"/><line class="cls-3" x1="152.27" y1="254.73" x2="201.34" y2="295.71"/><line class="cls-3" x1="142.15" y1="210.25" x2="242.83" y2="292.66"/><line class="cls-3" x1="133.01" y1="168.98" x2="284.72" y2="289.57"/><line class="cls-3" x1="180.57" y1="169.61" x2="328.91" y2="287.53"/><line class="cls-3" x1="224.96" y1="169.99" x2="367.72" y2="283.46"/><line class="cls-3" x1="272.17" y1="171.47" x2="384.36" y2="260.64"/><line class="cls-3" x1="319.18" y1="172.79" x2="389.51" y2="228.7"/><line class="cls-3" x1="366.95" y1="174.72" x2="394.66" y2="196.75"/><line class="cls-3" x1="159.48" y1="288.44" x2="255.85" y2="170.88"/><line class="cls-3" x1="190.98" y1="296.47" x2="293.18" y2="171.8"/><line class="cls-3" x1="231.51" y1="293.49" x2="330.32" y2="172.95"/><line class="cls-3" x1="272.03" y1="290.51" x2="366.95" y2="174.72"/><line class="cls-3" x1="312.56" y1="287.53" x2="396.59" y2="185.01"/><line class="cls-3" x1="353.09" y1="284.54" x2="387.29" y2="242.82"/><line class="cls-3" x1="151.52" y1="252.53" x2="218.85" y2="169.99"/><line class="cls-3" x1="143.59" y1="216.74" x2="182.74" y2="168.98"/><line class="cls-3" x1="135.65" y1="180.89" x2="145.41" y2="168.98"/><line class="cls-5" x1="70.41" y1="96.29" x2="408.16" y2="360.03"/></svg>