<svg id="Layer_1" data-name="Layer 1" xmlns="http://www.w3.org/2000/svg" viewBox="0 0 479.5 518.5"><defs><style>.cls-1,.cls-2,.cls-3,.cls-5{fill:#262626;}.cls-1,.cls-2,.cls-3,.cls-4,.cls-5{stroke:#262626;stroke-miterlimit:10;}.cls-2,.cls-3,.cls-4,.cls-5{stroke-linecap:round;}.cls-2{stroke-width:19px;}.cls-3{stroke-width:2px;}.cls-4{fill:#ea5959;stroke-width:0.39px;}.cls-5{stroke-width:3.68px;}</style></defs><title>chef</title><polygon class="cls-1" points="292.5 301.27 292.5 297.5 199.5 297.5 199.5 301.14 0.5 300.86 0.5 317.5 0.5 318.83 0.5 518.5 10.5 518.5 10.5 318.85 469.5 319.48 469.5 518.5 479.5 518.5 479.5 319.5 479.5 317.5 479.5 301.53 292.5 301.27"/><line class="cls-2" x1="242.33" y1="358.33" x2="188.67" y2="518.5"/><line class="cls-2" x1="242.33" y1="358.33" x2="296" y2="518.5"/><line class="cls-2" x1="242.33" y1="358.33" x2="243.33" y2="189"/><circle class="cls-2" cx="242.83" cy="160" r="52.33"/><line class="cls-2" x1="242.82" y1="276.33" x2="318.67" y2="283.66"/><line class="cls-2" x1="318.67" y1="283.66" x2="352" y2="245.66"/><path class="cls-3" d="M291.37,68.92C294.47,52,302.58,35.68,301,18.54a18.68,18.68,0,0,0-2-7.4,16.25,16.25,0,0,0-5.52-5.56,26.43,26.43,0,0,0-30.9,2.22,9.65,9.65,0,0,1-3,2.15c-3.93,1.34-7-3.37-10.65-5.38-7.62-4.2-16.1,4.08-24.71,5.29-8,1.12-15.39-4-22.9-7.09S183.49,0.22,180,7.55c-6.69,14.11,5.94,37.62,7.31,41.6C195.73,73.59,201.5,75,199.75,99H190v20H295V99h-3.81C290.06,90,289.78,77.56,291.37,68.92Z"/><path class="cls-4" d="M234.25,142.36c-15-21.11-28.84,0-28.84,0s15.46-6.76,28.84,0"/><path class="cls-4" d="M251.41,142.36c14.42-21.24,28.84,0,28.84,0s-15.46-6.76-28.84,0"/><path class="cls-4" d="M211.63,173.5s31.21,42.25,62.75,0C274.38,173.5,243.33,189,211.63,173.5Z"/><line class="cls-2" x1="242.82" y1="276.33" x2="168.15" y2="281.55"/><line class="cls-2" x1="168.15" y1="281.55" x2="104.33" y2="244"/><rect class="cls-3" x="98.01" y="222.46" width="8.83" height="42.33" transform="translate(-56.96 32.81) rotate(-14.29)"/><path class="cls-3" d="M101.48,222L89,165.66c0.74-1.6-14.48,27.4-9.17,48.33,3.29,13,13.36,9.9,13.09,10.21"/><path class="cls-5" d="M362.58,254.49s-7,6.11-13,2.24c-6.31-4.06-14.09-17.25-12.88-27.55,1.15-9.75,2.86-13.51,10.63-18.7s15.24,3.26,15.24,3.26"/><path class="cls-5" d="M360.58,254.49s7.46,5.55,13.47,1.69c6.31-4.06,13.61-16.69,12.4-27-1.15-9.75-2.86-13.51-10.63-18.7s-15.24,3.26-15.24,3.26"/><path class="cls-5" d="M361.58,212.75s-1.53-9.39,5-15.4l2.56,1.73S360.37,207.67,361.58,212.75Z"/></svg>