<svg id="Layer_1" data-name="Layer 1" xmlns="http://www.w3.org/2000/svg" viewBox="0 0 548.9 548.47"><defs><style>.cls-1,.cls-2,.cls-4{fill:none;stroke:#4dc3ff;stroke-miterlimit:10;}.cls-1{stroke-width:40px;}.cls-2,.cls-4{stroke-linecap:round;}.cls-2{stroke-width:10px;}.cls-3,.cls-5,.cls-6{fill:#4dc3ff;}.cls-4{stroke-width:2px;}.cls-5{font-size:65px;}.cls-5,.cls-6{font-family:Arial Black;}.cls-6{font-size:88px;}</style></defs><title>dietary</title><path class="cls-1" d="M528.47,274.24C528.47,133.71,414.76,20,274.24,20S20,133.71,20,274.24,133.71,528.47,274.24,528.47,528.47,414.76,528.47,274.24Z"/><line class="cls-1" x1="273.9" y1="273.9" x2="273.9" y2="528.9"/><line class="cls-1" x1="273.9" y1="273.9" x2="528.9" y2="273.9"/><line class="cls-1" x1="273.9" y1="273.9" x2="273.9" y2="19.9"/><line class="cls-1" x1="273.9" y1="273.9" x2="19.9" y2="273.9"/><circle class="cls-2" cx="168.18" cy="171.29" r="59.33"/><circle class="cls-2" cx="378.36" cy="171.29" r="59.33"/><circle class="cls-2" cx="378.36" cy="377.2" r="59.33"/><circle class="cls-2" cx="168.18" cy="377.2" r="59.33"/><path class="cls-3" d="M353.41,141.62s15.89-2.29,21.48,13.57"/><path class="cls-3" d="M353.41,141.62s4.76,15.33,21.48,13.57"/><path class="cls-3" d="M376.19,124.7s10.39,12.24-.07,25.4"/><path class="cls-3" d="M376.19,124.7s-10.45,12.19-.07,25.4"/><path class="cls-3" d="M353.41,155.62s15.89-2.29,21.48,13.57"/><path class="cls-3" d="M353.41,155.62s4.76,15.33,21.48,13.57"/><path class="cls-3" d="M353.41,169.62s15.89-2.29,21.48,13.57"/><path class="cls-3" d="M353.41,169.62s4.76,15.33,21.48,13.57"/><path class="cls-3" d="M353.41,183.62s15.89-2.29,21.48,13.57"/><path class="cls-3" d="M353.41,183.62s4.76,15.33,21.48,13.57"/><path class="cls-3" d="M399.89,141.62s-15.89-2.29-21.48,13.57"/><path class="cls-3" d="M399.89,141.62s-4.76,15.33-21.48,13.57"/><path class="cls-3" d="M399.89,155.62s-15.89-2.29-21.48,13.57"/><path class="cls-3" d="M399.89,155.62s-4.76,15.33-21.48,13.57"/><path class="cls-3" d="M399.89,169.62s-15.89-2.29-21.48,13.57"/><path class="cls-3" d="M399.89,169.62s-4.76,15.33-21.48,13.57"/><path class="cls-3" d="M399.89,183.62s-15.89-2.29-21.48,13.57"/><path class="cls-3" d="M399.89,183.62s-4.76,15.33-21.48,13.57"/><line class="cls-4" x1="376.4" y1="152.65" x2="376.65" y2="209.9"/><line class="cls-2" x1="336.12" y1="129.63" x2="423.65" y2="209.62"/><line class="cls-2" x1="124.12" y1="337.63" x2="211.65" y2="417.62"/><g id="ulMD6o.tif"><path class="cls-3" d="M214.29,354.33v1.3c-1.07,2.38-2.71,3.79-5.51,3.27a0.54,0.54,0,0,0-.22.18c0.14,0.92.65,2,.33,2.69-1.05,2.32-.16,4,1.42,5.5a2.34,2.34,0,0,1,.3,3.35c-0.5.67-1.68,0.9-2.61,1.14-0.64.17-1.42-.15-2,0-1.52.47-2.93,0.56-4-.44-1.63,2-3.07,4.08-4.75,5.89a17.59,17.59,0,0,0-3.5,5.91,26.47,26.47,0,0,1-3.57,5.8,3.9,3.9,0,0,1-2.17.87,7.63,7.63,0,0,1-1.76,0,43.87,43.87,0,0,1-.71,6.33c-0.93,3.6-.63,6.83,1.82,9.75a1.54,1.54,0,0,1,.29,1.31,1.9,1.9,0,0,1-1.18.58,3.94,3.94,0,0,1-1.13,0c-3.28-.15-5-1.86-4.33-5,1-4.74-1.62-8.89-1.66-13.45a63.78,63.78,0,0,0-.72,7.69,15.79,15.79,0,0,1-.22,2.07,11,11,0,0,0,.95,7.85c1,1.76.63,2.53-1.38,2.84-2.57.4-4.49-1-4.14-3.05a24.63,24.63,0,0,0-.47-9.93c-0.65-2.77-1.05-5.59-1.58-8.45a3,3,0,0,0-.68.15c-4.74,2.48-9.62,2.5-14.61.87a1.31,1.31,0,0,0-1,.06c-1.67,1.34-3.36,2.69-4.92,4.16a19.94,19.94,0,0,0-2.05,2.66l-2.06-1.34L145.71,397l-5.41-3.55c0,0.82,0,1.25,0,1.68,0.26,3.66-.46,7.5,2.13,10.73a0.83,0.83,0,0,1-.82,1.39c-1.43-.14-2.85-0.4-4-0.57l-0.85-16.33-0.65-.14a18.18,18.18,0,0,0-1.4,2.94c-0.33,1.18-.28,2.46-0.54,3.66A13.67,13.67,0,0,0,136,407a5.92,5.92,0,0,1,1,1.63,1.69,1.69,0,0,1-.59,1.45,6,6,0,0,1-3,0,3.45,3.45,0,0,1-2.08-1.93,61.33,61.33,0,0,1-.44-6.25c-0.36-4.3-.79-8.59-1.16-12.89a3.86,3.86,0,0,1,.14-1.58,26.71,26.71,0,0,0,.92-12.49,26.13,26.13,0,0,1,.55-10.46c0.16-.56.22-1.14,0.33-1.71l-0.47-.07a15,15,0,0,0-.93,3.06c-0.56,6.56-1.45,13.13-1.37,19.68,0.06,4.83-2.24,8.92-2.8,13.76a6.69,6.69,0,0,1-.37-0.73c-1.08-3.41-.3-6.7.47-10a48.36,48.36,0,0,0,1.14-8c0.25-4.32.21-8.65,0.33-13a18.71,18.71,0,0,1,2.85-9.84,6.54,6.54,0,0,1,3.33-2.85,23,23,0,0,1,7.64-.57c6.37,0.7,12.52,2.87,19,2.73,5.73-.12,11.48.22,17.13-1.06a15.91,15.91,0,0,1,9.71.48,5.83,5.83,0,0,0,5.2,0l-1-2.73a6.53,6.53,0,0,1,5,.31c1.23,0.58,1.95.21,2.75-.76a13.76,13.76,0,0,1,2.34-1.84h1.95a25.93,25.93,0,0,1,2.14,1.85c1,1.12,1.94,2.06,3.81,1.45C211,354.23,212.7,354.43,214.29,354.33Z"/></g><text class="cls-5" transform="translate(328.36 402.44)">GF</text><text class="cls-6" transform="translate(133.56 202.74)">V</text></svg>