<svg id="Layer_1" data-name="Layer 1" xmlns="http://www.w3.org/2000/svg" viewBox="0 0 1036.57 437.01"><defs><style>.cls-1{fill:none;stroke:#360;stroke-linecap:round;stroke-width:15px;}.cls-1,.cls-2,.cls-3{stroke-miterlimit:10;}.cls-2,.cls-3{fill:#f90;stroke:#000;}.cls-2{stroke-width:4px;}.cls-3{stroke-width:8px;}</style></defs><title>logo</title><path class="cls-1" d="M987.15,170.14a33.38,33.38,0,0,1-36.86,29.49,41.73,41.73,0,0,1-36.86-46.08A52.16,52.16,0,0,1,971,107.48a65.2,65.2,0,0,1,57.6,72c-5,44.74-45.94,62.79-90,72-36.67,7.67-273,17-273,17s237.67,13.33,282,22c39.33,7.69,76,23.24,81,63a58,58,0,0,1-50.4,64.8A46.44,46.44,0,0,1,926.38,378a37.15,37.15,0,0,1,32.26-41.47,29.72,29.72,0,0,1,33.18,25.8"/><path class="cls-1" d="M855.41,148.84a28.07,28.07,0,0,1-14.75,36.86,35.09,35.09,0,0,1-46.08-18.43,43.87,43.87,0,0,1,23-57.6,54.83,54.83,0,0,1,72,28.8c14.91,34.79-1.82,73.73-36,90-35,16.67-188,40-188,40s144.33,26,182,42c33.31,14.15,54.94,46.21,45,81a52.42,52.42,0,0,1-64.8,36A41.93,41.93,0,0,1,799,375.64a33.55,33.55,0,0,1,41.47-23,26.84,26.84,0,0,1,18.43,33.18"/><path class="cls-2" d="M759.62,274.23"/><path class="cls-3" d="M644.62,208.91v51.57h-18V206.76c-14-1.3-29-1.91-45-1.94v46.66h-18V205c-17,.41-35,1.43-54,2.93v52.53h-18V209.54q-21,2.13-45,5v54.92h-18V216.92c-18,2.49-36,5.24-54,8.14v35.41h-18V228.08c-18,3.22-36,6.56-54,9.87v31.52h-18v-28c-68,13.69-116,26-116,26s558.5,141,557.5,0C725.88,233.73,693.62,216.15,644.62,208.91Z"/><path d="M210.6,67.34C188,104.26,142,205.14,126.1,234.52c-15.86,29.64-47.58,54.86-75.66,54.86C14.56,289.37,0,269.1,0,248,0,224.9,17.16,201,42.9,201c14.56,0,27.3,10.14,27.3,33,0,4.42-1.82,6.76-3.38,6.76a1.46,1.46,0,0,1-1.56-1.3v-2.08c0-6-6.5-12.48-20.54-12.48-19.24,0-28.86,12.22-28.86,23.92,0,10.4,7.8,20,23.14,20,22.62,0,38-18.2,59.28-52.52,7.28-11.7,17.16-32.24,27.82-55.38-17.94,16.64-41.34,36.14-58.5,36.14-13.26,0-21.84-10.66-21.84-28.08,0-41.08,81.38-105.3,81.38-143.52,0-8.84-3.64-14.56-11.44-14.56-22.62,0-71.24,58.76-71.24,89.7,0,6,3.12,9.62,8.06,9.62s8.84-4.68,9.62-4.68a1.5,1.5,0,0,1,1.56,1.56c0,1-7.54,10.66-25,10.66-15.08,0-25-11.18-25-28.08,0-32.24,43.16-89.18,95.16-89.18,26,0,43.94,12.22,43.94,39,0,43.94-71.76,114.14-71.76,129.48,0,2.86.78,3.64,3.38,3.64,8.06,0,36.14-21.58,55.38-41.34C156.26,94.9,172.64,59,182.52,45c19.24-27.56,40.82-45,54.08-45,8.06,0,12.74,2.34,12.74,6C249.33,13.26,233,30.68,210.6,67.34Z"/><path d="M247.05,195.55c-10.27,0-19.69-7.92-19.69-19a20.86,20.86,0,0,1,.21-4.07c-3.42,4.92-19.9,23.33-29.75,23.33-9.63,0-19.47-12.41-19.47-24.61,0-26.11,33.38-80,44.3-84.53a28.65,28.65,0,0,1,5.56-.43c5.35,0,12.84,1.07,12.84,4.71a3.42,3.42,0,0,1-.64,1.71c-4.49,8.56-36.6,64.63-36.6,79.4,0,3.21,1.28,4.49,3,4.49,4.92,0,22.47-19.26,34.67-40,10.7-17.76,24.61-49.65,29.32-49.65,10.49,0,18.4,3.64,18.4,7.49,0,5.78-3.42,11.13-6.21,16.91-3,5.78-27.18,49.44-27.18,58.64,0,2.57.64,4.49,5.14,4.49,10.91,0,34.45-38.31,36.17-38.31,2.14,0,2.78,3.64,2.78,7.28C299.91,149.54,268,195.55,247.05,195.55Z"/><path d="M406.27,195.55c-10.27,0-19.69-7.92-19.69-19,0-24.4,22.47-59.06,27.82-66.77l-0.64-.43a191.5,191.5,0,0,0-41.3,47.51C359.83,176.93,351.91,197,347.63,197c-7.49,0-19.69-4.71-19.69-9.2a2.71,2.71,0,0,1,.21-1.28c10.49-22.9,37-69.55,37-75.76l-0.64-.64c-0.64,0-21.83,16.48-38.73,39.81-14.34,20.12-28.46,46-34.24,46s-17.33-5.56-17.33-11.34c0-5.56,10.49-27.18,24.82-54.57,14.34-27.18,26.11-45.15,29.32-45.15,3.64,0,18,3.42,18,7.7,0,4.71-9.2,24.4-10.06,27.39,0.64,0,31.89-32.74,41.3-32.74,9.2,0,20.54,6.63,20.54,12.41,0,1.5-2.78,8.35-6.85,17.76,6.63-7.49,27.61-30.6,38.31-30.6,7.92,0,18.19,5.35,18.19,9.2,0,5.78-2.78,9.42-5.56,15.19-3,5.78-27.18,49.44-27.18,58.64,0,2.57.64,4.49,5.14,4.49,10.91,0,34.45-38.31,36.17-38.31,2.14,0,2.78,3.64,2.78,7.28C459.13,149.54,427.24,195.55,406.27,195.55Z"/><path d="M466.83,194.48V39.54h64.84c30,0,53.07,9.2,68.7,24.18,13.7,13.05,22.47,30.82,22.47,53.29,0,21.4-8.13,39.8-22,53.07-16.05,15.41-39.38,24.4-68.7,24.4H466.83ZM530.6,144h1.5c10.7,0,18.83-3.42,24-8.77A25.91,25.91,0,0,0,563.13,117a26.61,26.61,0,0,0-7.06-18.62C551.57,93.68,544.3,90,532.53,90H530.6V144Z"/><path d="M629.68,39.54h62.06c23.33,0,72.55,2.35,72.55,39.38,0,13.05-6.21,25-23.33,31v0.43c22.47,8.35,27.61,22.9,27.61,36.81,0,40.88-43.66,47.29-73.83,47.29H629.68V39.54Zm66.13,62.92c8.13,0,12-4.28,12-9.63,0-5.56-4.07-9.63-12-9.63h-2.35v19.26h2.35Zm0.43,50.5c10.06,0,14.77-5.35,14.77-12s-4.92-12-14.77-12h-2.78v24h2.78Z"/></svg>